<?xml version="1.0" encoding="utf-8"?>
<!-- Generator: Adobe Illustrator 18.1.1, SVG Export Plug-In . SVG Version: 6.00 Build 0)  -->
<svg version="1.1" id="Layer_1" xmlns="http://www.w3.org/2000/svg" xmlns:xlink="http://www.w3.org/1999/xlink" x="0px" y="0px"
	 viewBox="10.2 -17.8 623.6 623.6" enable-background="new 10.2 -17.8 623.6 623.6" xml:space="preserve">
<g>
	<g>
		<rect x="495.5" y="198.2" fill="#FFFFFF" width="64.1" height="223"/>
		<path fill="#FFFFFF" d="M528.3,115.3c18.5,0,33.4,15,33.4,33.4s-15,33.4-33.4,33.4c-18.5,0-33.4-15-33.4-33.4
			S509.9,115.3,528.3,115.3 M528.3,104.8c-24.2,0-43.9,19.7-43.9,44s19.7,44,44,44c24.3,0,44-19.7,44-44S552.6,104.8,528.3,104.8
			L528.3,104.8z"/>
		<g>
			<path fill="#FFFFFF" d="M65.7,421.2h171.1v-223L65.7,421.2z M183.4,384.8c-18.5,0-33.4-15-33.4-33.4c0-18.5,15-33.4,33.4-33.4
				s33.5,14.8,33.5,33.3C216.9,369.8,201.9,384.8,183.4,384.8z"/>
		</g>
		<g>
			<polygon fill="#FFFFFF" points="260.2,198.2 260.2,421.2 319.9,421.2 319.9,231.4 335.6,231.4 335.6,421.2 396.7,421.2 
				396.7,231.4 412.5,231.4 412.5,421.2 472.2,421.2 472.2,198.2 			"/>
		</g>
	</g>
</g>
</svg>
