<?xml version="1.0" encoding="utf-8"?>
<!-- Generator: Adobe Illustrator 18.1.0, SVG Export Plug-In . SVG Version: 6.00 Build 0)  -->
<svg version="1.1" id="Layer_1" xmlns="http://www.w3.org/2000/svg" xmlns:xlink="http://www.w3.org/1999/xlink" x="0px" y="0px"
	 viewBox="0 0 526.1 447.3" enable-background="new 0 0 526.1 447.3" xml:space="preserve">
<g>
	<g>
		<rect x="428.5" y="80.3" fill="#FFFFFF" width="55.1" height="191.7"/>
		<path fill="#FFFFFF" d="M456.7,9c15.9,0,28.7,12.9,28.7,28.7s-12.9,28.7-28.7,28.7c-15.9,0-28.7-12.9-28.7-28.7S440.9,9,456.7,9
			 M456.7,0C435.9,0,419,16.9,419,37.8s16.9,37.8,37.8,37.8s37.8-16.9,37.8-37.8S477.6,0,456.7,0L456.7,0z"/>
		<g>
			<path fill="#FFFFFF" d="M59.1,272h147.1V80.3L59.1,272z M160.2,240.7c-15.9,0-28.7-12.9-28.7-28.7c0-15.9,12.9-28.7,28.7-28.7
				S189,196,189,211.9C189,227.8,176.1,240.7,160.2,240.7z"/>
		</g>
		<g>
			<polygon fill="#FFFFFF" points="226.3,80.3 226.3,272 277.6,272 277.6,108.8 291.1,108.8 291.1,272 343.6,272 343.6,108.8 
				357.2,108.8 357.2,272 408.5,272 408.5,80.3 			"/>
		</g>
	</g>
	<g>
		<path fill="#FFFFFF" d="M16.3,331.7c1.7-0.2,2.9-0.5,3.7-0.8c1.3-0.6,2-1.4,2-2.6c0-1.4-0.5-2.4-1.5-3c-1-0.5-2.5-0.8-4.5-0.8
			c-2.2,0-3.8,0.5-4.7,1.6c-0.7,0.8-1.1,1.9-1.3,3.2H1.1c0.2-3.1,1.1-5.6,2.6-7.6c2.4-3.1,6.6-4.6,12.6-4.6c3.9,0,7.3,0.8,10.3,2.3
			c3,1.5,4.5,4.4,4.5,8.6v16.1c0,1.1,0,2.5,0.1,4.1c0.1,1.2,0.2,2,0.5,2.5c0.3,0.4,0.8,0.8,1.4,1.1v1.4h-10c-0.3-0.7-0.5-1.4-0.6-2
			c-0.1-0.6-0.2-1.3-0.3-2.1c-1.3,1.4-2.7,2.5-4.4,3.5c-2,1.1-4.2,1.7-6.8,1.7c-3.2,0-5.8-0.9-7.9-2.7C1,349.7,0,347.1,0,343.8
			c0-4.3,1.7-7.5,5-9.4c1.8-1.1,4.6-1.8,8.1-2.3L16.3,331.7z M21.9,336c-0.6,0.4-1.2,0.7-1.8,0.9c-0.6,0.2-1.4,0.4-2.5,0.6l-2.1,0.4
			c-2,0.3-3.4,0.8-4.2,1.3c-1.4,0.8-2.2,2.1-2.2,3.9c0,1.6,0.4,2.7,1.3,3.4c0.9,0.7,2,1,3.2,1c2,0,3.9-0.6,5.6-1.7
			c1.7-1.2,2.6-3.3,2.6-6.4V336z"/>
		<path fill="#FFFFFF" d="M48.5,353.1h-9.2v-47.6h9.2V353.1z"/>
		<path fill="#FFFFFF" d="M66.9,353.1h-9.2v-47.6h9.2V353.1z"/>
		<path fill="#FFFFFF" d="M98.8,318.7c2.5,1.1,4.5,2.8,6.1,5.2c1.4,2.1,2.4,4.5,2.8,7.3c0.2,1.6,0.3,3.9,0.3,7H82.3
			c0.1,3.5,1.4,6,3.7,7.4c1.4,0.9,3.1,1.3,5.1,1.3c2.1,0,3.8-0.5,5.1-1.6c0.7-0.6,1.3-1.4,1.9-2.4h9.4c-0.2,2.1-1.4,4.2-3.4,6.4
			c-3.2,3.4-7.6,5.1-13.2,5.1c-4.7,0-8.8-1.4-12.4-4.3c-3.6-2.9-5.4-7.6-5.4-14.1c0-6.1,1.6-10.8,4.8-14c3.2-3.3,7.4-4.9,12.6-4.9
			C93.6,317,96.3,317.6,98.8,318.7z M85,326.6c-1.3,1.3-2.1,3.2-2.4,5.4h15.8c-0.2-2.4-1-4.3-2.4-5.6s-3.3-1.9-5.5-1.9
			C88.1,324.6,86.3,325.3,85,326.6z"/>
		<path fill="#FFFFFF" d="M141,320c2.3,1.9,3.5,5.1,3.5,9.5v23.7H135v-21.4c0-1.8-0.2-3.3-0.7-4.3c-0.9-1.8-2.6-2.7-5.1-2.7
			c-3.1,0-5.2,1.3-6.4,4c-0.6,1.4-0.9,3.2-0.9,5.4v19h-9.2V318h8.9v5.1c1.2-1.8,2.3-3.1,3.3-3.9c1.9-1.4,4.3-2.1,7.2-2.1
			C135.7,317.1,138.7,318.1,141,320z"/>
		<path fill="#FFFFFF" d="M215.2,318.1c1.5,0.6,2.9,1.7,4.1,3.2c1,1.2,1.7,2.7,2,4.5c0.2,1.2,0.3,2.9,0.3,5.2l-0.1,22.2h-9.4v-22.4
			c0-1.3-0.2-2.4-0.6-3.3c-0.8-1.6-2.3-2.5-4.5-2.5c-2.5,0-4.3,1.1-5.3,3.2c-0.5,1.1-0.7,2.5-0.7,4v20.9h-9.3v-20.9
			c0-2.1-0.2-3.6-0.6-4.5c-0.8-1.7-2.3-2.5-4.5-2.5c-2.6,0-4.4,0.9-5.3,2.5c-0.5,1-0.7,2.4-0.7,4.3v21.2h-9.3V318h8.9v5.1
			c1.1-1.8,2.2-3.1,3.2-3.9c1.8-1.4,4.1-2.1,6.9-2.1c2.7,0,4.9,0.6,6.5,1.8c1.3,1.1,2.3,2.5,3,4.2c1.2-2.1,2.7-3.6,4.5-4.5
			c1.9-1,4-1.5,6.3-1.5C212.2,317.2,213.7,317.5,215.2,318.1z"/>
		<path fill="#FFFFFF" d="M231.5,359.9l1.2,0.1c0.9,0,1.8,0,2.6-0.1c0.8-0.1,1.5-0.4,2.1-0.7c0.5-0.4,1-1.1,1.5-2.3
			c0.5-1.2,0.7-1.9,0.6-2.1L226.4,318h10.2l7.7,25.9l7.3-25.9h9.8l-12.1,34.6c-2.3,6.7-4.2,10.8-5.5,12.4c-1.4,1.6-4.1,2.4-8.1,2.4
			c-0.8,0-1.5,0-2,0c-0.5,0-1.2,0-2.2-0.1V359.9z"/>
		<path fill="#FFFFFF" d="M276.2,353.1H267v-47.6h9.2V353.1z"/>
		<path fill="#FFFFFF" d="M299.1,331.7c1.7-0.2,2.9-0.5,3.7-0.8c1.3-0.6,2-1.4,2-2.6c0-1.4-0.5-2.4-1.5-3c-1-0.5-2.5-0.8-4.5-0.8
			c-2.2,0-3.8,0.5-4.7,1.6c-0.7,0.8-1.1,1.9-1.3,3.2h-8.9c0.2-3.1,1.1-5.6,2.6-7.6c2.4-3.1,6.6-4.6,12.6-4.6c3.9,0,7.3,0.8,10.3,2.3
			c3,1.5,4.5,4.4,4.5,8.6v16.1c0,1.1,0,2.5,0.1,4.1c0.1,1.2,0.2,2,0.5,2.5c0.3,0.4,0.8,0.8,1.4,1.1v1.4h-10c-0.3-0.7-0.5-1.4-0.6-2
			c-0.1-0.6-0.2-1.3-0.3-2.1c-1.3,1.4-2.7,2.5-4.4,3.5c-2,1.1-4.2,1.7-6.8,1.7c-3.2,0-5.8-0.9-7.9-2.7c-2.1-1.8-3.1-4.4-3.1-7.7
			c0-4.3,1.7-7.5,5-9.4c1.8-1.1,4.5-1.8,8.1-2.3L299.1,331.7z M304.7,336c-0.6,0.4-1.2,0.7-1.8,0.9c-0.6,0.2-1.4,0.4-2.5,0.6
			l-2.1,0.4c-2,0.3-3.4,0.8-4.2,1.3c-1.4,0.8-2.2,2.1-2.2,3.9c0,1.6,0.4,2.7,1.3,3.4c0.9,0.7,2,1,3.2,1c2,0,3.9-0.6,5.6-1.7
			c1.7-1.2,2.6-3.3,2.6-6.4V336z"/>
		<path fill="#FFFFFF" d="M350.3,320c2.3,1.9,3.5,5.1,3.5,9.5v23.7h-9.4v-21.4c0-1.8-0.2-3.3-0.7-4.3c-0.9-1.8-2.6-2.7-5.1-2.7
			c-3.1,0-5.2,1.3-6.4,4c-0.6,1.4-0.9,3.2-0.9,5.4v19H322V318h8.9v5.1c1.2-1.8,2.3-3.1,3.3-3.9c1.9-1.4,4.3-2.1,7.2-2.1
			C345,317.1,348,318.1,350.3,320z"/>
		<path fill="#FFFFFF" d="M380.9,318.5c1.7,0.9,3,2.2,4,3.9v-16.8h9.3v47.5h-8.9v-4.9c-1.3,2.1-2.8,3.6-4.5,4.5s-3.8,1.4-6.3,1.4
			c-4.1,0-7.6-1.7-10.4-5c-2.8-3.3-4.2-7.6-4.2-12.8c0-6,1.4-10.7,4.1-14.2c2.8-3.4,6.5-5.2,11.1-5.2
			C377.4,317.1,379.3,317.6,380.9,318.5z M383.2,343.6c1.4-1.9,2-4.4,2-7.5c0-4.3-1.1-7.4-3.3-9.2c-1.3-1.1-2.9-1.7-4.6-1.7
			c-2.7,0-4.7,1-5.9,3c-1.3,2-1.9,4.6-1.9,7.6c0,3.2,0.6,5.8,1.9,7.8c1.3,1.9,3.2,2.9,5.8,2.9C379.9,346.5,381.8,345.5,383.2,343.6z
			"/>
		<path fill="#FFFFFF" d="M430.5,313.8h-9.3v-8.5h9.3V313.8z M421.1,318h9.3v35.2h-9.3V318z"/>
		<path fill="#FFFFFF" d="M467.7,320c2.3,1.9,3.5,5.1,3.5,9.5v23.7h-9.4v-21.4c0-1.8-0.2-3.3-0.7-4.3c-0.9-1.8-2.6-2.7-5.1-2.7
			c-3.1,0-5.2,1.3-6.4,4c-0.6,1.4-0.9,3.2-0.9,5.4v19h-9.2V318h8.9v5.1c1.2-1.8,2.3-3.1,3.3-3.9c1.9-1.4,4.3-2.1,7.2-2.1
			C462.5,317.1,465.4,318.1,467.7,320z"/>
		<path fill="#FFFFFF" d="M500.8,330.6c-0.2-1.3-0.6-2.5-1.3-3.5c-1-1.4-2.6-2.1-4.8-2.1c-3.1,0-5.2,1.5-6.4,4.6
			c-0.6,1.6-0.9,3.8-0.9,6.5c0,2.6,0.3,4.6,0.9,6.2c1.1,2.9,3.2,4.4,6.2,4.4c2.2,0,3.7-0.6,4.6-1.7c0.9-1.2,1.5-2.7,1.6-4.5h9.4
			c-0.2,2.8-1.2,5.4-3,7.9c-2.9,4-7.2,6-12.8,6c-5.7,0-9.8-1.7-12.5-5c-2.7-3.4-4-7.7-4-13.1c0-6,1.5-10.7,4.4-14.1
			c2.9-3.4,7-5,12.2-5c4.4,0,8,1,10.8,3c2.8,2,4.5,5.5,5,10.5H500.8z"/>
		<path fill="#FFFFFF" d="M516.3,343.5h9.8v9.6h-9.8V343.5z"/>
	</g>
</g>
<text transform="matrix(1 0 0 1 259.9988 422.5078)" fill="#FFFFFF" font-family="'HelveticaNeue'" font-size="51.5187">since 1973</text>
</svg>
